<mxfile host="app.diagrams.net" modified="2020-12-19T05:08:34.616Z" agent="5.0 (Windows NT 10.0; Win64; x64) AppleWebKit/537.36 (KHTML, like Gecko) Chrome/87.0.4280.88 Safari/537.36" etag="H7Y9A2l44aGan5qc8z9g" version="14.1.1" type="github">
  <diagram id="8C_kMzsXKGDB7avgyeky" name="Page-1">
    <mxGraphModel dx="981" dy="526" grid="1" gridSize="10" guides="1" tooltips="1" connect="1" arrows="1" fold="1" page="1" pageScale="1" pageWidth="827" pageHeight="1169" math="1" shadow="0">
      <root>
        <mxCell id="0" />
        <mxCell id="1" parent="0" />
        <mxCell id="QM_1y8_zXTEwYixWuQdQ-26" value="" style="rounded=1;whiteSpace=wrap;html=1;shadow=0;sketch=0;fillColor=none;" vertex="1" parent="1">
          <mxGeometry x="70" y="170" width="620" height="258" as="geometry" />
        </mxCell>
        <mxCell id="QM_1y8_zXTEwYixWuQdQ-16" value="" style="rounded=1;whiteSpace=wrap;html=1;sketch=0;shadow=0;fillColor=none;" vertex="1" parent="1">
          <mxGeometry x="280" y="363" width="400" height="40" as="geometry" />
        </mxCell>
        <mxCell id="QM_1y8_zXTEwYixWuQdQ-1" value="\(S_{t-1}\oplus U_{t-1}\oplus S_{t}\oplus U_{t}&lt;br&gt;\)" style="rounded=1;whiteSpace=wrap;html=1;fillColor=#d5e8d4;strokeColor=#82b366;" vertex="1" parent="1">
          <mxGeometry x="383" y="368" width="210" height="30" as="geometry" />
        </mxCell>
        <mxCell id="QM_1y8_zXTEwYixWuQdQ-2" value="\(state_{t-1}\)" style="rounded=1;whiteSpace=wrap;html=1;fillColor=#fff2cc;strokeColor=#d6b656;" vertex="1" parent="1">
          <mxGeometry x="290" y="368" width="100" height="30" as="geometry" />
        </mxCell>
        <mxCell id="QM_1y8_zXTEwYixWuQdQ-3" value="\(slot_{i}\)" style="rounded=1;whiteSpace=wrap;html=1;fillColor=#f8cecc;strokeColor=#b85450;" vertex="1" parent="1">
          <mxGeometry x="593" y="368" width="77" height="30" as="geometry" />
        </mxCell>
        <mxCell id="QM_1y8_zXTEwYixWuQdQ-4" value="\(Roberta\)" style="rounded=1;whiteSpace=wrap;html=1;fillColor=#ffe6cc;strokeColor=#d79b00;" vertex="1" parent="1">
          <mxGeometry x="280" y="278" width="400" height="60" as="geometry" />
        </mxCell>
        <mxCell id="QM_1y8_zXTEwYixWuQdQ-20" style="edgeStyle=orthogonalEdgeStyle;rounded=0;orthogonalLoop=1;jettySize=auto;html=1;entryX=1;entryY=0.5;entryDx=0;entryDy=0;" edge="1" parent="1" source="QM_1y8_zXTEwYixWuQdQ-6" target="QM_1y8_zXTEwYixWuQdQ-17">
          <mxGeometry relative="1" as="geometry" />
        </mxCell>
        <mxCell id="QM_1y8_zXTEwYixWuQdQ-48" style="edgeStyle=orthogonalEdgeStyle;rounded=0;orthogonalLoop=1;jettySize=auto;html=1;entryX=0.5;entryY=1;entryDx=0;entryDy=0;" edge="1" parent="1" source="QM_1y8_zXTEwYixWuQdQ-6" target="QM_1y8_zXTEwYixWuQdQ-47">
          <mxGeometry relative="1" as="geometry" />
        </mxCell>
        <mxCell id="QM_1y8_zXTEwYixWuQdQ-6" value="\(CLS_{i}\)" style="rounded=1;whiteSpace=wrap;html=1;fillColor=#dae8fc;strokeColor=#6c8ebf;" vertex="1" parent="1">
          <mxGeometry x="280" y="218" width="40" height="30" as="geometry" />
        </mxCell>
        <mxCell id="QM_1y8_zXTEwYixWuQdQ-7" value="\(start_{i}&lt;br&gt;\)" style="rounded=1;whiteSpace=wrap;html=1;fillColor=#f5f5f5;strokeColor=#666666;fontColor=#333333;" vertex="1" parent="1">
          <mxGeometry x="414" y="218" width="40" height="30" as="geometry" />
        </mxCell>
        <mxCell id="QM_1y8_zXTEwYixWuQdQ-8" value="\(end_{i}&lt;br&gt;\)" style="rounded=1;whiteSpace=wrap;html=1;fillColor=#f5f5f5;strokeColor=#666666;fontColor=#333333;" vertex="1" parent="1">
          <mxGeometry x="600" y="218" width="40" height="30" as="geometry" />
        </mxCell>
        <mxCell id="QM_1y8_zXTEwYixWuQdQ-10" value="" style="endArrow=classic;html=1;entryX=0.5;entryY=1;entryDx=0;entryDy=0;" edge="1" parent="1" target="QM_1y8_zXTEwYixWuQdQ-6">
          <mxGeometry width="50" height="50" relative="1" as="geometry">
            <mxPoint x="300" y="277" as="sourcePoint" />
            <mxPoint x="440" y="118" as="targetPoint" />
          </mxGeometry>
        </mxCell>
        <mxCell id="QM_1y8_zXTEwYixWuQdQ-11" value="" style="endArrow=classic;html=1;entryX=0.5;entryY=1;entryDx=0;entryDy=0;" edge="1" parent="1">
          <mxGeometry width="50" height="50" relative="1" as="geometry">
            <mxPoint x="433.5" y="277" as="sourcePoint" />
            <mxPoint x="433.5" y="248" as="targetPoint" />
          </mxGeometry>
        </mxCell>
        <mxCell id="QM_1y8_zXTEwYixWuQdQ-12" value="" style="endArrow=classic;html=1;entryX=0.5;entryY=1;entryDx=0;entryDy=0;" edge="1" parent="1">
          <mxGeometry width="50" height="50" relative="1" as="geometry">
            <mxPoint x="620" y="277" as="sourcePoint" />
            <mxPoint x="620" y="248" as="targetPoint" />
          </mxGeometry>
        </mxCell>
        <mxCell id="QM_1y8_zXTEwYixWuQdQ-14" value="" style="endArrow=classic;html=1;entryX=0.5;entryY=1;entryDx=0;entryDy=0;" edge="1" parent="1">
          <mxGeometry width="50" height="50" relative="1" as="geometry">
            <mxPoint x="479.5" y="367" as="sourcePoint" />
            <mxPoint x="479.5" y="338" as="targetPoint" />
          </mxGeometry>
        </mxCell>
        <mxCell id="QM_1y8_zXTEwYixWuQdQ-24" value="" style="edgeStyle=orthogonalEdgeStyle;rounded=0;orthogonalLoop=1;jettySize=auto;html=1;" edge="1" parent="1" source="QM_1y8_zXTEwYixWuQdQ-17" target="QM_1y8_zXTEwYixWuQdQ-23">
          <mxGeometry relative="1" as="geometry" />
        </mxCell>
        <mxCell id="QM_1y8_zXTEwYixWuQdQ-17" value="\(Roberta\)" style="rounded=1;whiteSpace=wrap;html=1;shadow=0;sketch=0;fillColor=#bac8d3;strokeColor=#23445d;" vertex="1" parent="1">
          <mxGeometry x="80" y="278" width="120" height="60" as="geometry" />
        </mxCell>
        <mxCell id="QM_1y8_zXTEwYixWuQdQ-19" value="" style="edgeStyle=orthogonalEdgeStyle;rounded=0;orthogonalLoop=1;jettySize=auto;html=1;" edge="1" parent="1" source="QM_1y8_zXTEwYixWuQdQ-18" target="QM_1y8_zXTEwYixWuQdQ-17">
          <mxGeometry relative="1" as="geometry" />
        </mxCell>
        <mxCell id="QM_1y8_zXTEwYixWuQdQ-18" value="\(V_{slot_{i}}\)" style="rounded=1;whiteSpace=wrap;html=1;shadow=0;sketch=0;fillColor=#b0e3e6;strokeColor=#0e8088;" vertex="1" parent="1">
          <mxGeometry x="80" y="363" width="120" height="37" as="geometry" />
        </mxCell>
        <mxCell id="QM_1y8_zXTEwYixWuQdQ-23" value="\(value_{i}\)" style="whiteSpace=wrap;html=1;rounded=1;shadow=0;sketch=0;fillColor=#f8cecc;strokeColor=#b85450;" vertex="1" parent="1">
          <mxGeometry x="120" y="218" width="40" height="33" as="geometry" />
        </mxCell>
        <mxCell id="QM_1y8_zXTEwYixWuQdQ-25" value="\(F(turn_{t}, slot_{i})\)" style="text;html=1;align=center;verticalAlign=middle;resizable=0;points=[];autosize=1;" vertex="1" parent="1">
          <mxGeometry x="315" y="440" width="130" height="20" as="geometry" />
        </mxCell>
        <mxCell id="QM_1y8_zXTEwYixWuQdQ-28" value="\(slot gate_{turn_t}\)" style="text;html=1;align=center;verticalAlign=middle;resizable=0;points=[];autosize=1;" vertex="1" parent="1">
          <mxGeometry x="493" y="595" width="120" height="20" as="geometry" />
        </mxCell>
        <mxCell id="QM_1y8_zXTEwYixWuQdQ-40" style="edgeStyle=orthogonalEdgeStyle;rounded=0;orthogonalLoop=1;jettySize=auto;html=1;" edge="1" parent="1" source="QM_1y8_zXTEwYixWuQdQ-29">
          <mxGeometry relative="1" as="geometry">
            <mxPoint x="450" y="540" as="targetPoint" />
          </mxGeometry>
        </mxCell>
        <mxCell id="QM_1y8_zXTEwYixWuQdQ-29" value="\(CLS_{1}\)" style="rounded=1;whiteSpace=wrap;html=1;fillColor=#dae8fc;strokeColor=#6c8ebf;" vertex="1" parent="1">
          <mxGeometry x="430" y="559" width="40" height="20" as="geometry" />
        </mxCell>
        <mxCell id="QM_1y8_zXTEwYixWuQdQ-41" style="edgeStyle=orthogonalEdgeStyle;rounded=0;orthogonalLoop=1;jettySize=auto;html=1;" edge="1" parent="1" source="QM_1y8_zXTEwYixWuQdQ-30">
          <mxGeometry relative="1" as="geometry">
            <mxPoint x="490" y="540" as="targetPoint" />
          </mxGeometry>
        </mxCell>
        <mxCell id="QM_1y8_zXTEwYixWuQdQ-30" value="\(CLS_{2}\)" style="rounded=1;whiteSpace=wrap;html=1;fillColor=#dae8fc;strokeColor=#6c8ebf;" vertex="1" parent="1">
          <mxGeometry x="470" y="559" width="40" height="20" as="geometry" />
        </mxCell>
        <mxCell id="QM_1y8_zXTEwYixWuQdQ-42" style="edgeStyle=orthogonalEdgeStyle;rounded=0;orthogonalLoop=1;jettySize=auto;html=1;" edge="1" parent="1" source="QM_1y8_zXTEwYixWuQdQ-32">
          <mxGeometry relative="1" as="geometry">
            <mxPoint x="530" y="540" as="targetPoint" />
          </mxGeometry>
        </mxCell>
        <mxCell id="QM_1y8_zXTEwYixWuQdQ-32" value="\(CLS_{...}\)" style="rounded=1;whiteSpace=wrap;html=1;fillColor=#dae8fc;strokeColor=#6c8ebf;" vertex="1" parent="1">
          <mxGeometry x="510" y="559" width="40" height="20" as="geometry" />
        </mxCell>
        <mxCell id="QM_1y8_zXTEwYixWuQdQ-44" style="edgeStyle=orthogonalEdgeStyle;rounded=0;orthogonalLoop=1;jettySize=auto;html=1;entryX=0.582;entryY=0.99;entryDx=0;entryDy=0;entryPerimeter=0;" edge="1" parent="1" source="QM_1y8_zXTEwYixWuQdQ-34" target="QM_1y8_zXTEwYixWuQdQ-37">
          <mxGeometry relative="1" as="geometry" />
        </mxCell>
        <mxCell id="QM_1y8_zXTEwYixWuQdQ-34" value="\(CLS_{i}\)" style="rounded=1;whiteSpace=wrap;html=1;fillColor=#dae8fc;strokeColor=#6c8ebf;" vertex="1" parent="1">
          <mxGeometry x="550" y="559" width="40" height="20" as="geometry" />
        </mxCell>
        <mxCell id="QM_1y8_zXTEwYixWuQdQ-45" style="edgeStyle=orthogonalEdgeStyle;rounded=0;orthogonalLoop=1;jettySize=auto;html=1;entryX=0.75;entryY=1;entryDx=0;entryDy=0;" edge="1" parent="1" source="QM_1y8_zXTEwYixWuQdQ-35" target="QM_1y8_zXTEwYixWuQdQ-37">
          <mxGeometry relative="1" as="geometry" />
        </mxCell>
        <mxCell id="QM_1y8_zXTEwYixWuQdQ-35" value="\(CLS_{...}\)" style="rounded=1;whiteSpace=wrap;html=1;fillColor=#dae8fc;strokeColor=#6c8ebf;" vertex="1" parent="1">
          <mxGeometry x="590" y="559" width="40" height="20" as="geometry" />
        </mxCell>
        <mxCell id="QM_1y8_zXTEwYixWuQdQ-46" style="edgeStyle=orthogonalEdgeStyle;rounded=0;orthogonalLoop=1;jettySize=auto;html=1;" edge="1" parent="1" source="QM_1y8_zXTEwYixWuQdQ-36">
          <mxGeometry relative="1" as="geometry">
            <mxPoint x="650" y="540" as="targetPoint" />
          </mxGeometry>
        </mxCell>
        <mxCell id="QM_1y8_zXTEwYixWuQdQ-36" value="\(CLS_{n}\)" style="rounded=1;whiteSpace=wrap;html=1;fillColor=#dae8fc;strokeColor=#6c8ebf;" vertex="1" parent="1">
          <mxGeometry x="630" y="559" width="40" height="20" as="geometry" />
        </mxCell>
        <mxCell id="QM_1y8_zXTEwYixWuQdQ-37" value="\(Transformer\)" style="rounded=1;whiteSpace=wrap;html=1;shadow=0;sketch=0;fillColor=#ffffff;" vertex="1" parent="1">
          <mxGeometry x="430" y="510" width="240" height="29" as="geometry" />
        </mxCell>
        <mxCell id="QM_1y8_zXTEwYixWuQdQ-47" value="\(Known/unknown\)" style="text;html=1;strokeColor=none;fillColor=none;align=center;verticalAlign=middle;whiteSpace=wrap;rounded=0;shadow=0;sketch=0;" vertex="1" parent="1">
          <mxGeometry x="280" y="170" width="40" height="20" as="geometry" />
        </mxCell>
        <mxCell id="QM_1y8_zXTEwYixWuQdQ-49" style="edgeStyle=orthogonalEdgeStyle;rounded=0;orthogonalLoop=1;jettySize=auto;html=1;" edge="1" parent="1">
          <mxGeometry relative="1" as="geometry">
            <mxPoint x="449.71" y="491" as="targetPoint" />
            <mxPoint x="449.73857142857145" y="510" as="sourcePoint" />
          </mxGeometry>
        </mxCell>
        <mxCell id="QM_1y8_zXTEwYixWuQdQ-50" style="edgeStyle=orthogonalEdgeStyle;rounded=0;orthogonalLoop=1;jettySize=auto;html=1;" edge="1" parent="1">
          <mxGeometry relative="1" as="geometry">
            <mxPoint x="489.71000000000026" y="491" as="targetPoint" />
            <mxPoint x="489.7385714285715" y="510" as="sourcePoint" />
          </mxGeometry>
        </mxCell>
        <mxCell id="QM_1y8_zXTEwYixWuQdQ-51" style="edgeStyle=orthogonalEdgeStyle;rounded=0;orthogonalLoop=1;jettySize=auto;html=1;" edge="1" parent="1">
          <mxGeometry relative="1" as="geometry">
            <mxPoint x="529.7100000000003" y="491" as="targetPoint" />
            <mxPoint x="529.7385714285715" y="510" as="sourcePoint" />
          </mxGeometry>
        </mxCell>
        <mxCell id="QM_1y8_zXTEwYixWuQdQ-52" style="edgeStyle=orthogonalEdgeStyle;rounded=0;orthogonalLoop=1;jettySize=auto;html=1;" edge="1" parent="1">
          <mxGeometry relative="1" as="geometry">
            <mxPoint x="569.7100000000003" y="491" as="targetPoint" />
            <mxPoint x="569.7385714285715" y="510" as="sourcePoint" />
          </mxGeometry>
        </mxCell>
        <mxCell id="QM_1y8_zXTEwYixWuQdQ-54" style="edgeStyle=orthogonalEdgeStyle;rounded=0;orthogonalLoop=1;jettySize=auto;html=1;" edge="1" parent="1">
          <mxGeometry relative="1" as="geometry">
            <mxPoint x="609.7100000000003" y="491" as="targetPoint" />
            <mxPoint x="609.7385714285715" y="510" as="sourcePoint" />
          </mxGeometry>
        </mxCell>
        <mxCell id="QM_1y8_zXTEwYixWuQdQ-55" style="edgeStyle=orthogonalEdgeStyle;rounded=0;orthogonalLoop=1;jettySize=auto;html=1;" edge="1" parent="1">
          <mxGeometry relative="1" as="geometry">
            <mxPoint x="649.7100000000003" y="491" as="targetPoint" />
            <mxPoint x="649.7385714285715" y="510" as="sourcePoint" />
          </mxGeometry>
        </mxCell>
        <mxCell id="QM_1y8_zXTEwYixWuQdQ-56" value="\(Known/unknown\)" style="text;html=1;strokeColor=none;fillColor=none;align=center;verticalAlign=middle;whiteSpace=wrap;rounded=0;shadow=0;sketch=0;" vertex="1" parent="1">
          <mxGeometry x="533" y="470" width="40" height="20" as="geometry" />
        </mxCell>
        <mxCell id="QM_1y8_zXTEwYixWuQdQ-58" style="edgeStyle=orthogonalEdgeStyle;rounded=0;orthogonalLoop=1;jettySize=auto;html=1;" edge="1" parent="1">
          <mxGeometry relative="1" as="geometry">
            <mxPoint x="415" y="524.16" as="targetPoint" />
            <mxPoint x="345" y="524.5" as="sourcePoint" />
            <Array as="points">
              <mxPoint x="355" y="524.16" />
              <mxPoint x="355" y="524.16" />
            </Array>
          </mxGeometry>
        </mxCell>
        <mxCell id="QM_1y8_zXTEwYixWuQdQ-57" value="\(value_i, CLS_i, start_i, end_i=F(turn_t, slot_i)\)" style="text;html=1;strokeColor=none;fillColor=none;align=center;verticalAlign=middle;whiteSpace=wrap;rounded=0;shadow=0;sketch=0;" vertex="1" parent="1">
          <mxGeometry x="90" y="514.5" width="230" height="20" as="geometry" />
        </mxCell>
      </root>
    </mxGraphModel>
  </diagram>
</mxfile>
